<?xml version="1.0" standalone="no"?>
<!DOCTYPE svg PUBLIC "-//W3C//DTD SVG 20010904//EN"
 "http://www.w3.org/TR/2001/REC-SVG-20010904/DTD/svg10.dtd">
<svg version="1.0" xmlns="http://www.w3.org/2000/svg"
 width="1600.000000pt" height="1600.000000pt" viewBox="0 0 1600.000000 1600.000000"
 preserveAspectRatio="xMidYMid meet">

<g transform="translate(0.000000,1600.000000) scale(0.100000,-0.100000)"
fill="#865ef0" stroke="none">
<path d="M7515 15579 c-789 -40 -1591 -221 -2364 -534 -265 -107 -350 -145
-606 -276 -736 -374 -1372 -842 -1976 -1455 -1114 -1131 -1856 -2629 -2083
-4212 -74 -511 -96 -1090 -61 -1618 121 -1831 916 -3572 2221 -4866 582 -576
1193 -1018 1919 -1388 661 -336 1298 -553 2030 -689 391 -73 630 -98 1105
-112 696 -22 1203 15 1765 126 980 194 1861 556 2715 1113 441 288 977 735
1300 1083 63 68 117 126 120 129 3 3 53 59 111 125 861 980 1465 2200 1724
3485 107 530 145 918 146 1495 1 758 -88 1413 -286 2113 -243 859 -668 1717
-1204 2432 -677 903 -1443 1572 -2446 2135 -72 41 -442 227 -495 250 -45 18
-139 60 -215 94 -147 67 -567 215 -810 287 -361 106 -836 202 -1205 244 -52 5
-115 13 -140 15 -255 30 -910 42 -1265 24z m598 -1569 c108 -22 101 -40 -26
-59 -408 -64 -985 -260 -1452 -494 -522 -261 -963 -558 -1384 -932 -520 -462
-992 -1056 -1319 -1661 -89 -163 -214 -420 -257 -524 -120 -294 -168 -430
-263 -745 -91 -300 -197 -884 -233 -1285 -16 -190 -14 -617 5 -806 30 -302 85
-619 147 -853 227 -851 657 -1588 1289 -2210 493 -486 1072 -854 1712 -1089
381 -141 792 -234 1193 -273 192 -19 809 -16 1000 4 920 96 1784 453 2527
1042 744 590 1311 1426 1597 2350 108 351 167 663 196 1025 36 467 5 910 -90
1285 -66 260 -139 454 -261 697 -429 858 -1228 1524 -2138 1784 -434 124 -828
166 -1260 134 -335 -25 -787 -137 -1106 -274 -702 -304 -1269 -811 -1655
-1481 -370 -642 -544 -1527 -421 -2137 88 -435 281 -801 580 -1102 189 -190
353 -310 571 -417 297 -145 513 -196 885 -206 326 -9 579 32 840 133 333 130
654 364 877 639 183 225 334 520 408 798 67 247 89 604 47 758 -68 252 -270
465 -517 546 -114 37 -286 43 -406 15 -201 -48 -353 -151 -462 -312 -91 -134
-128 -249 -146 -455 -17 -184 -66 -298 -173 -402 -50 -48 -169 -114 -247 -137
-70 -21 -206 -21 -285 0 -180 46 -339 191 -395 359 -74 225 3 694 170 1027
298 593 881 1002 1525 1069 715 73 1434 -275 1826 -886 124 -192 227 -460 274
-710 25 -136 30 -456 10 -625 -65 -538 -205 -959 -456 -1376 -411 -682 -1087
-1213 -1840 -1447 -390 -122 -871 -172 -1246 -132 -404 43 -648 99 -948 217
-419 165 -783 406 -1119 741 -423 422 -699 899 -857 1484 -145 541 -129 1263
45 1946 83 327 184 604 331 902 163 332 405 699 639 970 101 116 394 410 509
509 294 253 632 476 991 651 688 337 1446 496 2201 465 884 -38 1706 -310
2444 -810 314 -213 607 -475 902 -805 121 -136 305 -388 434 -597 434 -702
659 -1481 680 -2353 5 -200 2 -266 -20 -503 -59 -624 -171 -1100 -393 -1667
-82 -210 -283 -624 -394 -810 -616 -1034 -1474 -1837 -2524 -2363 -162 -81
-191 -94 -325 -152 -908 -392 -1918 -547 -2925 -451 -335 33 -535 66 -853 141
-764 183 -1533 546 -2167 1023 -688 519 -1216 1117 -1653 1873 -58 101 -231
449 -287 579 -452 1046 -591 2179 -409 3345 22 141 91 469 118 560 8 25 24 81
36 125 140 504 398 1075 701 1552 432 681 1058 1323 1739 1784 103 70 357 229
365 229 3 0 22 11 43 24 77 49 334 177 508 254 635 282 1286 446 1969 496 329
25 482 26 578 6z"/>
</g>
</svg>
